<svg width="1600" height="900" viewBox="0 0 1600 900" fill="none" xmlns="http://www.w3.org/2000/svg">
<rect width="1600" height="900" fill="#2C1A16"/>
<rect x="74" y="74" width="1452" height="752" rx="44" fill="url(#paint0_linear)"/>
<circle cx="1234" cy="260" r="154" fill="#FFE08A"/>
<path d="M122 686C278 642 454 654 650 722C841 788 1021 802 1192 764C1287 742 1385 694 1486 620V826H122V686Z" fill="#F08A5D"/>
<path d="M122 626C266 560 431 548 616 590C766 625 902 660 1026 652C1179 642 1332 576 1486 454V760C1392 684 1294 640 1192 628C1004 605 816 628 628 696C445 762 276 767 122 712V626Z" fill="#6C3B2A"/>
<path d="M174 544C332 432 486 399 636 446C782 490 916 502 1038 482C1167 461 1310 388 1468 262" stroke="#FFF8E7" stroke-width="12" stroke-linecap="round"/>
<text x="170" y="252" fill="#FFF8E7" font-family="Arial, sans-serif" font-size="58" letter-spacing="8">SLOW GOLD / OPEN AIR / AFTERGLOW</text>
<text x="164" y="388" fill="#FFF8E7" font-family="Arial, sans-serif" font-size="174" font-weight="700">DESERT</text>
<text x="164" y="538" fill="#FFD36B" font-family="Arial, sans-serif" font-size="174" font-weight="700">HORIZON</text>
<text x="172" y="648" fill="#F6D7C3" font-family="Arial, sans-serif" font-size="34" letter-spacing="6">WARM POSTER ART FOR FESTIVALS, MEETUPS, AND LATE SUNSETS</text>
<defs>
<linearGradient id="paint0_linear" x1="160" y1="134" x2="1405" y2="742" gradientUnits="userSpaceOnUse">
<stop stop-color="#4E261D"/>
<stop offset="0.48" stop-color="#91563A"/>
<stop offset="1" stop-color="#251A22"/>
</linearGradient>
</defs>
</svg>
